<?xml version="1.0" encoding="UTF-8"?>
<svg width="96" height="96" viewBox="0 0 96 96" fill="none" xmlns="http://www.w3.org/2000/svg">
  <rect width="96" height="96" rx="48" fill="#F3F4F6" fill-opacity="0.5"/>
  <path d="M48 26C30.3269 26 16 37.1634 16 51C16 57.9264 19.6257 64.1464 25.5 68.5C25.5 68.5 24 75.5 16 80C16 80 27.5 80 34.5 73.5C38.5392 75.2393 43.1149 76.2288 48 76C65.6731 76 80 64.8366 80 51C80 37.1634 65.6731 26 48 26Z" fill="#DBEAFE" stroke="#3B82F6" stroke-width="2"/>
  <path d="M34 51.5C34 53.4588 32.3928 55 30.5 55C28.6072 55 27 53.4588 27 51.5C27 49.5412 28.6072 48 30.5 48C32.3928 48 34 49.5412 34 51.5Z" fill="#3B82F6"/>
  <path d="M53 51.5C53 53.4588 51.3928 55 49.5 55C47.6072 55 46 53.4588 46 51.5C46 49.5412 47.6072 48 49.5 48C51.3928 48 53 49.5412 53 51.5Z" fill="#3B82F6"/>
  <path d="M72 51.5C72 53.4588 70.3928 55 68.5 55C66.6072 55 65 53.4588 65 51.5C65 49.5412 66.6072 48 68.5 48C70.3928 48 72 49.5412 72 51.5Z" fill="#3B82F6"/>
</svg>